<?xml version="1.0" standalone="no"?>
<!DOCTYPE svg PUBLIC "-//W3C//DTD SVG 20010904//EN"
 "http://www.w3.org/TR/2001/REC-SVG-20010904/DTD/svg10.dtd">
<svg version="1.0" xmlns="http://www.w3.org/2000/svg"
 width="900.000000pt" height="900.000000pt" viewBox="0 0 900.000000 900.000000"
 preserveAspectRatio="xMidYMid meet">

<g transform="translate(0.000000,900.000000) scale(0.100000,-0.100000)"
fill="#000000" stroke="none">
<path d="M4380 8371 c-155 -92 -264 -154 -535 -311 -126 -73 -331 -191 -455
-263 -124 -71 -240 -138 -257 -148 -18 -11 -48 -27 -65 -38 -18 -10 -105 -60
-193 -111 -88 -50 -164 -95 -170 -99 -5 -5 -35 -22 -65 -38 -52 -29 -338 -193
-639 -368 -74 -42 -149 -85 -165 -95 -25 -14 -186 -107 -384 -221 -17 -11 -48
-28 -67 -39 -206 -118 -280 -163 -287 -173 -9 -14 -11 -3892 -2 -3922 3 -12
46 -43 112 -81 191 -109 826 -474 882 -508 30 -18 75 -45 100 -58 25 -14 101
-58 170 -98 145 -84 177 -103 225 -130 19 -11 50 -28 68 -39 17 -10 118 -68
222 -128 105 -61 278 -161 385 -223 107 -62 269 -156 360 -208 389 -224 547
-316 578 -333 38 -22 88 -51 136 -78 18 -11 64 -38 102 -61 53 -32 72 -39 84
-31 8 6 71 43 140 83 69 39 169 98 223 130 53 32 100 58 102 58 3 0 22 11 43
24 29 18 541 315 732 424 31 17 368 211 458 263 17 11 47 27 65 38 17 10 88
51 157 91 146 84 177 103 225 130 54 31 91 52 225 130 69 40 154 90 190 110
36 20 124 71 195 112 72 41 222 128 335 193 113 64 226 131 253 147 l47 30 0
1972 0 1972 -32 17 c-18 9 -51 27 -73 41 -22 13 -128 74 -235 136 -107 62
-208 120 -225 130 -16 10 -133 77 -260 150 -126 73 -304 176 -395 228 -404
233 -547 316 -580 334 -19 11 -39 24 -45 28 -5 4 -35 21 -65 37 -30 17 -95 54
-145 83 -49 29 -105 61 -122 71 -18 11 -48 27 -65 38 -43 24 -450 259 -658
379 -91 52 -235 135 -320 184 -85 49 -159 94 -164 99 -16 15 -25 11 -146 -60z
m196 -201 c36 -22 68 -40 70 -40 2 0 37 -20 77 -44 39 -24 92 -54 117 -68 25
-14 101 -58 170 -98 123 -71 158 -92 223 -129 17 -10 73 -42 122 -71 50 -29
115 -66 145 -83 30 -16 67 -38 82 -49 14 -10 29 -18 32 -18 4 0 39 -20 79 -44
39 -24 239 -139 442 -256 307 -177 615 -355 783 -451 17 -11 47 -27 65 -38 17
-10 115 -67 217 -126 102 -59 253 -145 335 -192 83 -48 158 -93 168 -101 16
-14 17 -113 15 -1866 l-3 -1851 -115 -67 c-63 -37 -126 -74 -140 -81 -14 -8
-41 -23 -60 -34 -108 -63 -361 -209 -400 -230 -25 -14 -65 -38 -90 -53 -25
-15 -108 -63 -185 -108 -115 -66 -280 -160 -630 -362 -16 -10 -86 -50 -155
-90 -69 -40 -150 -86 -180 -103 -30 -16 -60 -33 -65 -38 -6 -4 -111 -66 -235
-137 -124 -71 -386 -222 -583 -335 -197 -114 -365 -207 -374 -207 -14 0 -67
29 -363 201 -69 39 -226 130 -350 202 -124 71 -240 138 -257 148 -18 11 -49
28 -68 39 -19 11 -51 29 -70 40 -19 11 -50 29 -69 39 -18 11 -64 38 -101 60
-37 23 -69 41 -71 41 -2 0 -27 14 -56 31 -29 18 -66 40 -83 49 -16 10 -163 94
-325 188 -162 93 -394 227 -515 297 -121 70 -240 139 -265 153 -25 13 -70 39
-100 57 -30 18 -71 42 -90 53 -19 11 -91 52 -160 92 -126 73 -164 95 -233 133
l-37 21 0 1856 0 1856 88 51 c48 28 103 60 122 70 19 11 60 35 90 53 30 18 80
46 110 63 30 17 67 38 82 49 14 10 29 18 32 18 4 0 39 20 79 44 63 37 199 117
305 177 113 65 525 302 717 414 55 32 201 116 325 188 124 71 239 137 255 147
17 10 118 68 225 130 107 62 210 121 228 131 17 11 47 27 65 38 169 97 419
242 447 259 19 12 38 22 43 22 4 0 37 -18 73 -40z"/>
<path d="M2740 4821 l0 -831 205 0 205 0 0 305 0 305 78 -1 77 0 229 -305 228
-304 249 0 c137 0 249 2 249 5 0 2 -123 161 -273 352 l-273 347 71 46 c115 76
189 173 221 293 19 69 19 239 0 299 -44 145 -170 255 -341 298 -35 9 -184 14
-487 17 l-438 5 0 -831z m755 502 c74 -39 105 -93 105 -182 0 -67 -17 -117
-53 -158 -53 -61 -102 -76 -259 -81 l-138 -5 0 228 0 227 153 -4 c131 -3 158
-7 192 -25z"/>
<path d="M4467 4843 c111 -445 205 -818 208 -830 l5 -23 228 0 227 0 124 498
c68 273 127 502 130 509 3 6 65 -216 137 -495 l131 -507 228 0 228 0 208 825
c115 454 208 826 209 828 0 1 -94 2 -209 2 l-209 0 -14 -62 c-8 -35 -61 -282
-119 -550 -57 -268 -106 -484 -110 -480 -3 4 -45 176 -93 382 -49 206 -106
450 -128 543 l-40 167 -206 -2 -207 -3 -136 -550 c-76 -302 -138 -548 -139
-545 -1 3 -52 250 -114 550 l-112 545 -215 3 -215 2 203 -807z"/>
<path d="M4460 3345 l0 -45 65 0 65 0 0 45 0 45 -65 0 -65 0 0 -45z"/>
<path d="M5310 3345 l0 -45 65 0 65 0 0 45 0 45 -65 0 -65 0 0 -45z"/>
<path d="M2484 3366 c-83 -27 -124 -75 -124 -144 0 -51 20 -93 54 -115 13 -9
61 -27 107 -39 56 -16 86 -30 96 -45 14 -20 13 -24 -12 -49 -24 -24 -32 -26
-85 -22 -44 3 -72 12 -110 36 -28 18 -53 32 -56 32 -2 0 -4 -26 -4 -58 0 -67
4 -71 105 -92 113 -23 235 10 275 74 13 23 20 50 20 86 0 45 -4 56 -33 85 -21
21 -54 39 -92 50 -123 35 -130 39 -133 67 -7 61 88 77 182 30 l56 -29 0 58 0
58 -37 11 c-63 18 -164 21 -209 6z"/>
<path d="M3050 3249 c-83 -25 -130 -94 -130 -190 0 -77 32 -137 90 -169 37
-20 59 -25 125 -25 44 0 97 6 118 13 36 13 37 15 37 63 0 27 -2 49 -4 49 -2 0
-24 -11 -47 -25 -61 -34 -127 -34 -168 1 -19 16 -31 35 -31 50 l0 24 125 0
125 0 0 53 c0 63 -25 115 -68 140 -38 22 -124 30 -172 16z m110 -89 c39 -39
27 -50 -54 -50 -70 0 -74 1 -69 20 13 48 87 66 123 30z"/>
<path d="M4933 3251 c-55 -14 -96 -45 -120 -90 -44 -84 -22 -212 45 -259 40
-29 123 -46 180 -37 74 11 82 19 82 75 0 28 -3 50 -6 50 -3 0 -19 -11 -36 -25
-43 -37 -100 -35 -140 5 -29 29 -30 34 -26 97 4 57 8 69 32 89 36 31 83 31
130 -1 20 -14 39 -25 41 -25 3 0 5 23 5 50 0 46 -3 51 -27 61 -38 15 -121 20
-160 10z"/>
<path d="M5757 3246 c-76 -28 -117 -92 -117 -186 0 -134 90 -212 226 -195 104
13 159 80 159 195 -1 80 -24 133 -74 166 -47 31 -140 40 -194 20z m113 -76
c10 -5 23 -24 29 -41 23 -65 7 -160 -29 -179 -34 -18 -68 -11 -90 18 -19 23
-21 37 -18 99 2 52 8 77 22 92 20 22 56 27 86 11z"/>
<path d="M6313 3251 c-98 -25 -140 -114 -87 -189 9 -13 37 -28 72 -37 85 -24
102 -33 102 -54 0 -39 -79 -42 -151 -6 l-49 24 0 -50 c0 -44 3 -51 26 -60 46
-17 137 -22 183 -9 102 27 145 127 82 190 -16 16 -41 32 -57 35 -84 20 -106
27 -111 42 -16 42 76 57 142 23 22 -11 41 -20 42 -20 2 0 3 20 3 45 0 40 -3
47 -26 56 -38 14 -133 20 -171 10z"/>
<path d="M3500 3060 l0 -190 55 0 55 0 0 130 0 130 26 10 c14 6 45 10 70 10
l44 0 0 51 0 52 -37 -6 c-21 -4 -50 -16 -65 -27 -35 -26 -38 -25 -38 5 0 24
-3 25 -55 25 l-55 0 0 -190z"/>
<path d="M3941 3108 c28 -79 58 -165 67 -191 l16 -48 65 3 65 3 66 185 66 185
-54 3 c-30 2 -58 -1 -62 -5 -4 -4 -22 -58 -40 -120 -18 -62 -36 -110 -40 -108
-3 2 -22 56 -41 119 l-34 116 -62 0 -62 0 50 -142z"/>
<path d="M4470 3060 l0 -190 55 0 55 0 0 190 0 190 -55 0 -55 0 0 -190z"/>
<path d="M5320 3060 l0 -190 55 0 55 0 0 190 0 190 -55 0 -55 0 0 -190z"/>
</g>
</svg>
